<svg xmlns="http://www.w3.org/2000/svg" xmlns:xlink="http://www.w3.org/1999/xlink" width="512" zoomAndPan="magnify" viewBox="0 0 384 383.999986" height="512" preserveAspectRatio="xMidYMid meet" version="1.0"><defs><g/></defs><rect x="-38.4" width="460.8" fill="#ffffff" y="-38.399999" height="460.799983" fill-opacity="1"/><rect x="-38.4" width="460.8" fill="#092a39" y="-38.399999" height="460.799983" fill-opacity="1"/><g fill="#ffffff" fill-opacity="1"><g transform="translate(59.003908, 218.249983)"><g><path d="M 31.953125 1.078125 C 26.367188 1.078125 21.410156 -0.109375 17.078125 -2.484375 C 12.753906 -4.867188 9.375 -8.160156 6.9375 -12.359375 C 4.507812 -16.566406 3.296875 -21.410156 3.296875 -26.890625 C 3.296875 -32.367188 4.507812 -37.207031 6.9375 -41.40625 C 9.375 -45.601562 12.753906 -48.890625 17.078125 -51.265625 C 21.410156 -53.648438 26.367188 -54.84375 31.953125 -54.84375 C 37.585938 -54.84375 42.554688 -53.648438 46.859375 -51.265625 C 51.160156 -48.890625 54.539062 -45.601562 57 -41.40625 C 59.457031 -37.207031 60.6875 -32.367188 60.6875 -26.890625 C 60.6875 -21.410156 59.457031 -16.566406 57 -12.359375 C 54.539062 -8.160156 51.160156 -4.867188 46.859375 -2.484375 C 42.554688 -0.109375 37.585938 1.078125 31.953125 1.078125 Z M 15.75 -26.890625 C 15.75 -23.660156 16.4375 -20.816406 17.8125 -18.359375 C 19.195312 -15.898438 21.101562 -13.976562 23.53125 -12.59375 C 25.96875 -11.207031 28.773438 -10.515625 31.953125 -10.515625 C 35.179688 -10.515625 38.007812 -11.207031 40.4375 -12.59375 C 42.875 -13.976562 44.769531 -15.898438 46.125 -18.359375 C 47.476562 -20.816406 48.15625 -23.660156 48.15625 -26.890625 C 48.15625 -30.109375 47.476562 -32.945312 46.125 -35.40625 C 44.769531 -37.863281 42.875 -39.785156 40.4375 -41.171875 C 38.007812 -42.554688 35.179688 -43.25 31.953125 -43.25 C 28.773438 -43.25 25.96875 -42.554688 23.53125 -41.171875 C 21.101562 -39.785156 19.195312 -37.863281 17.8125 -35.40625 C 16.4375 -32.945312 15.75 -30.109375 15.75 -26.890625 Z M 15.75 -26.890625 "/></g></g></g><g fill="#ffffff" fill-opacity="1"><g transform="translate(122.982213, 218.249983)"><g><path d="M 5.84375 0 L 5.84375 -40.328125 L 14.515625 -40.328125 L 16.046875 -34.953125 C 17.378906 -36.847656 19.019531 -38.21875 20.96875 -39.0625 C 22.914062 -39.90625 25.375 -40.328125 28.34375 -40.328125 L 32.71875 -40.328125 L 32.71875 -29.71875 L 28.265625 -29.71875 C 24.941406 -29.71875 22.316406 -28.820312 20.390625 -27.03125 C 18.472656 -25.238281 17.515625 -22.171875 17.515625 -17.828125 L 17.515625 0 Z M 5.84375 0 "/></g></g></g><g fill="#ffffff" fill-opacity="1"><g transform="translate(158.312376, 218.249983)"><g><path d="M 5.984375 15.359375 L 5.984375 5.296875 L 10.59375 5.296875 C 13 5.296875 14.726562 4.925781 15.78125 4.1875 C 16.832031 3.445312 17.691406 2.078125 18.359375 0.078125 L 18.8125 -1.3125 L 0.6875 -40.328125 L 13.59375 -40.328125 L 24.421875 -15.359375 L 28.109375 -25.65625 L 33.484375 -40.328125 L 46.015625 -40.328125 L 28.03125 4.765625 C 26.957031 7.523438 25.726562 9.671875 24.34375 11.203125 C 22.96875 12.742188 21.253906 13.820312 19.203125 14.4375 C 17.148438 15.050781 14.5625 15.359375 11.4375 15.359375 Z M 5.984375 15.359375 "/></g></g></g><g fill="#ffffff" fill-opacity="1"><g transform="translate(203.012446, 218.249983)"><g><path d="M 25.65625 1.078125 C 21.195312 1.078125 17.265625 0.179688 13.859375 -1.609375 C 10.453125 -3.398438 7.789062 -5.894531 5.875 -9.09375 C 3.957031 -12.300781 3 -16.003906 3 -20.203125 C 3 -24.398438 3.957031 -28.085938 5.875 -31.265625 C 7.789062 -34.441406 10.453125 -36.925781 13.859375 -38.71875 C 17.265625 -40.507812 21.195312 -41.40625 25.65625 -41.40625 C 30.113281 -41.40625 34.039062 -40.507812 37.4375 -38.71875 C 40.84375 -36.925781 43.492188 -34.441406 45.390625 -31.265625 C 47.285156 -28.085938 48.234375 -24.398438 48.234375 -20.203125 C 48.234375 -16.003906 47.285156 -12.300781 45.390625 -9.09375 C 43.492188 -5.894531 40.84375 -3.398438 37.4375 -1.609375 C 34.039062 0.179688 30.113281 1.078125 25.65625 1.078125 Z M 14.515625 -20.203125 C 14.515625 -16.921875 15.550781 -14.226562 17.625 -12.125 C 19.695312 -10.03125 22.375 -8.984375 25.65625 -8.984375 C 28.9375 -8.984375 31.597656 -10.03125 33.640625 -12.125 C 35.691406 -14.226562 36.71875 -16.921875 36.71875 -20.203125 C 36.71875 -23.523438 35.691406 -26.222656 33.640625 -28.296875 C 31.597656 -30.378906 28.9375 -31.421875 25.65625 -31.421875 C 22.375 -31.421875 19.695312 -30.378906 17.625 -28.296875 C 15.550781 -26.222656 14.515625 -23.523438 14.515625 -20.203125 Z M 14.515625 -20.203125 "/></g></g></g><g fill="#ffffff" fill-opacity="1"><g transform="translate(254.241175, 218.249983)"><g><path d="M 25.65625 1.078125 C 21.195312 1.078125 17.265625 0.179688 13.859375 -1.609375 C 10.453125 -3.398438 7.789062 -5.894531 5.875 -9.09375 C 3.957031 -12.300781 3 -16.003906 3 -20.203125 C 3 -24.398438 3.957031 -28.085938 5.875 -31.265625 C 7.789062 -34.441406 10.453125 -36.925781 13.859375 -38.71875 C 17.265625 -40.507812 21.195312 -41.40625 25.65625 -41.40625 C 30.113281 -41.40625 34.039062 -40.507812 37.4375 -38.71875 C 40.84375 -36.925781 43.492188 -34.441406 45.390625 -31.265625 C 47.285156 -28.085938 48.234375 -24.398438 48.234375 -20.203125 C 48.234375 -16.003906 47.285156 -12.300781 45.390625 -9.09375 C 43.492188 -5.894531 40.84375 -3.398438 37.4375 -1.609375 C 34.039062 0.179688 30.113281 1.078125 25.65625 1.078125 Z M 14.515625 -20.203125 C 14.515625 -16.921875 15.550781 -14.226562 17.625 -12.125 C 19.695312 -10.03125 22.375 -8.984375 25.65625 -8.984375 C 28.9375 -8.984375 31.597656 -10.03125 33.640625 -12.125 C 35.691406 -14.226562 36.71875 -16.921875 36.71875 -20.203125 C 36.71875 -23.523438 35.691406 -26.222656 33.640625 -28.296875 C 31.597656 -30.378906 28.9375 -31.421875 25.65625 -31.421875 C 22.375 -31.421875 19.695312 -30.378906 17.625 -28.296875 C 15.550781 -26.222656 14.515625 -23.523438 14.515625 -20.203125 Z M 14.515625 -20.203125 "/></g></g></g><g fill="#ffffff" fill-opacity="1"><g transform="translate(304.471304, 218.249983)"><g><path d="M 10.296875 0.84375 C 8.191406 0.84375 6.472656 0.191406 5.140625 -1.109375 C 3.816406 -2.421875 3.15625 -4.070312 3.15625 -6.0625 C 3.15625 -8.0625 3.816406 -9.726562 5.140625 -11.0625 C 6.472656 -12.394531 8.191406 -13.0625 10.296875 -13.0625 C 12.390625 -13.0625 14.101562 -12.394531 15.4375 -11.0625 C 16.769531 -9.726562 17.4375 -8.0625 17.4375 -6.0625 C 17.4375 -4.070312 16.769531 -2.421875 15.4375 -1.109375 C 14.101562 0.191406 12.390625 0.84375 10.296875 0.84375 Z M 10.296875 0.84375 "/></g></g></g></svg>